<svg
    xmlns="http://www.w3.org/2000/svg"
    viewBox="0 0 149 249"
    id="ic_drop">
    <path
        id="path"
        d="M 74.93 249.77 C 116.25 249.77 149.86 221.06 149.86 185.77 C 149.86 151.77 74.38 7.77 71.16 1.67 C 70.794 0.973 70.177 0.44 69.434 0.178 C 68.692 -0.083 67.877 -0.054 67.155 0.26 C 66.433 0.573 65.856 1.149 65.54 1.87 C 62.87 8 0 151.88 0 185.77 C 0 221.06 33.61 249.77 74.93 249.77 Z M 68.66 10.38 C 83.02 38.14 143.66 156.99 143.66 185.77 C 143.66 217.61 112.84 243.52 74.97 243.52 C 37.1 243.52 6.24 217.61 6.24 185.77 C 6.24 157 56.53 38.52 68.66 10.38 Z M 13.11 190.91 C 12.987 190.092 13.194 189.258 13.685 188.592 C 14.176 187.927 14.912 187.483 15.73 187.36 C 16.55 187.245 17.382 187.458 18.046 187.952 C 18.711 188.446 19.154 189.182 19.28 190 C 21.92 207.47 34.92 221.71 54.06 228.09 C 54.688 228.3 55.234 228.703 55.618 229.242 C 56.002 229.782 56.205 230.429 56.198 231.091 C 56.191 231.753 55.974 232.396 55.579 232.927 C 55.184 233.458 54.63 233.85 53.997 234.046 C 53.365 234.243 52.687 234.234 52.06 234.02 C 31 227 16.06 210.46 13.11 190.91 Z"
        fill="#000000"/>
</svg>
